<mxfile host="65bd71144e">
    <diagram id="kxHaG-YO_03NIB8bBEuI" name="Page-1">
        <mxGraphModel dx="1218" dy="1020" grid="1" gridSize="10" guides="1" tooltips="1" connect="1" arrows="1" fold="1" page="1" pageScale="1" pageWidth="850" pageHeight="1100" math="0" shadow="0">
            <root>
                <mxCell id="0"/>
                <mxCell id="1" parent="0"/>
                <mxCell id="17" value="" style="ellipse;html=1;" parent="1" vertex="1">
                    <mxGeometry x="30" y="70" width="30" height="30" as="geometry"/>
                </mxCell>
                <mxCell id="18" value="" style="endArrow=open;html=1;rounded=0;align=center;verticalAlign=top;endFill=0;labelBackgroundColor=none;endSize=6;entryX=0;entryY=0.5;entryDx=0;entryDy=0;" parent="1" source="17" target="20" edge="1">
                    <mxGeometry relative="1" as="geometry">
                        <mxPoint x="180" y="85" as="targetPoint"/>
                    </mxGeometry>
                </mxCell>
                <mxCell id="19" value="Nouvelle connexion" style="edgeLabel;html=1;align=center;verticalAlign=middle;resizable=0;points=[];" parent="18" vertex="1" connectable="0">
                    <mxGeometry x="-0.2844" y="4" relative="1" as="geometry">
                        <mxPoint x="7" y="-11" as="offset"/>
                    </mxGeometry>
                </mxCell>
                <mxCell id="23" value="" style="edgeStyle=none;html=1;" parent="1" source="20" target="22" edge="1">
                    <mxGeometry relative="1" as="geometry"/>
                </mxCell>
                <mxCell id="20" value="Verification des infornations de connexion du client&lt;br&gt;Antivirus" style="html=1;align=center;verticalAlign=top;rounded=1;absoluteArcSize=1;arcSize=10;dashed=1;whiteSpace=wrap;" parent="1" vertex="1">
                    <mxGeometry x="280" y="65" width="320" height="40" as="geometry"/>
                </mxCell>
                <mxCell id="29" value="" style="edgeStyle=none;html=1;" parent="1" source="22" target="28" edge="1">
                    <mxGeometry relative="1" as="geometry"/>
                </mxCell>
                <mxCell id="34" value="Connexion rejetée" style="edgeLabel;html=1;align=center;verticalAlign=middle;resizable=0;points=[];" parent="29" vertex="1" connectable="0">
                    <mxGeometry x="-0.2174" relative="1" as="geometry">
                        <mxPoint as="offset"/>
                    </mxGeometry>
                </mxCell>
                <mxCell id="33" style="edgeStyle=none;html=1;exitX=1;exitY=0.5;exitDx=0;exitDy=0;" parent="1" source="22" edge="1">
                    <mxGeometry relative="1" as="geometry">
                        <mxPoint x="560" y="193" as="targetPoint"/>
                    </mxGeometry>
                </mxCell>
                <mxCell id="35" value="Acceptée" style="edgeLabel;html=1;align=center;verticalAlign=middle;resizable=0;points=[];" parent="33" vertex="1" connectable="0">
                    <mxGeometry x="-0.3527" relative="1" as="geometry">
                        <mxPoint as="offset"/>
                    </mxGeometry>
                </mxCell>
                <mxCell id="85" style="edgeStyle=none;html=1;exitX=0.5;exitY=1;exitDx=0;exitDy=0;entryX=0.5;entryY=0;entryDx=0;entryDy=0;" edge="1" parent="1" source="22" target="36">
                    <mxGeometry relative="1" as="geometry"/>
                </mxCell>
                <mxCell id="22" value="" style="rhombus;whiteSpace=wrap;html=1;verticalAlign=top;fillColor=rgb(24, 20, 29);rounded=1;arcSize=10;dashed=0;" parent="1" vertex="1">
                    <mxGeometry x="410" y="170" width="60" height="45" as="geometry"/>
                </mxCell>
                <mxCell id="24" value="" style="ellipse;html=1;shape=endState;fillColor=strokeColor;" parent="1" vertex="1">
                    <mxGeometry x="30" y="280" width="30" height="30" as="geometry"/>
                </mxCell>
                <mxCell id="32" style="edgeStyle=none;html=1;exitX=0;exitY=0.5;exitDx=0;exitDy=0;" parent="1" source="26" edge="1">
                    <mxGeometry relative="1" as="geometry">
                        <mxPoint x="60" y="295" as="targetPoint"/>
                    </mxGeometry>
                </mxCell>
                <mxCell id="26" value="Avertissement de détection de fraude. Avec les coordonnée de contact pour réclamation" style="whiteSpace=wrap;html=1;verticalAlign=top;fillColor=rgb(24, 20, 29);rounded=1;arcSize=10;dashed=0;" parent="1" vertex="1">
                    <mxGeometry x="140" y="250" width="120" height="90" as="geometry"/>
                </mxCell>
                <mxCell id="30" style="edgeStyle=none;html=1;exitX=0.5;exitY=1;exitDx=0;exitDy=0;entryX=0.5;entryY=0;entryDx=0;entryDy=0;" parent="1" source="28" target="26" edge="1">
                    <mxGeometry relative="1" as="geometry"/>
                </mxCell>
                <mxCell id="28" value="Ajout à la base des connexion banis" style="whiteSpace=wrap;html=1;verticalAlign=top;fillColor=rgb(24, 20, 29);rounded=1;arcSize=10;dashed=1;" parent="1" vertex="1">
                    <mxGeometry x="140" y="162.5" width="120" height="60" as="geometry"/>
                </mxCell>
                <mxCell id="38" style="edgeStyle=none;html=1;exitX=0.5;exitY=1;exitDx=0;exitDy=0;entryX=0.5;entryY=0;entryDx=0;entryDy=0;" parent="1" source="36" target="37" edge="1">
                    <mxGeometry relative="1" as="geometry">
                        <mxPoint x="235" y="360" as="sourcePoint"/>
                    </mxGeometry>
                </mxCell>
                <mxCell id="36" value="Vérification dans la base des connexion banis si inexistant" style="html=1;align=center;verticalAlign=top;rounded=1;absoluteArcSize=1;arcSize=10;dashed=1;whiteSpace=wrap;" parent="1" vertex="1">
                    <mxGeometry x="335" y="250" width="210" height="40" as="geometry"/>
                </mxCell>
                <mxCell id="39" style="edgeStyle=orthogonalEdgeStyle;html=1;exitX=0;exitY=0.5;exitDx=0;exitDy=0;entryX=0.5;entryY=1;entryDx=0;entryDy=0;" parent="1" source="37" target="26" edge="1">
                    <mxGeometry relative="1" as="geometry">
                        <mxPoint x="40" y="387.5" as="targetPoint"/>
                    </mxGeometry>
                </mxCell>
                <mxCell id="41" value="Détectée comme utilisateur banis" style="edgeLabel;html=1;align=center;verticalAlign=middle;resizable=0;points=[];" parent="39" vertex="1" connectable="0">
                    <mxGeometry x="-0.2762" y="-2" relative="1" as="geometry">
                        <mxPoint as="offset"/>
                    </mxGeometry>
                </mxCell>
                <mxCell id="40" style="edgeStyle=none;html=1;exitX=0.5;exitY=1;exitDx=0;exitDy=0;entryX=0.5;entryY=0;entryDx=0;entryDy=0;" parent="1" source="37" target="43" edge="1">
                    <mxGeometry relative="1" as="geometry">
                        <mxPoint x="500.47368421052647" y="510" as="targetPoint"/>
                    </mxGeometry>
                </mxCell>
                <mxCell id="47" value="Non détecté" style="edgeLabel;html=1;align=center;verticalAlign=middle;resizable=0;points=[];" parent="40" vertex="1" connectable="0">
                    <mxGeometry x="-0.2999" relative="1" as="geometry">
                        <mxPoint as="offset"/>
                    </mxGeometry>
                </mxCell>
                <mxCell id="37" value="" style="rhombus;whiteSpace=wrap;html=1;verticalAlign=top;fillColor=rgb(24, 20, 29);rounded=1;arcSize=10;dashed=0;" parent="1" vertex="1">
                    <mxGeometry x="410" y="365" width="60" height="45" as="geometry"/>
                </mxCell>
                <mxCell id="45" value="" style="edgeStyle=none;html=1;entryX=0.5;entryY=0;entryDx=0;entryDy=0;" parent="1" source="43" target="46" edge="1">
                    <mxGeometry relative="1" as="geometry">
                        <mxPoint x="500" y="610" as="targetPoint"/>
                    </mxGeometry>
                </mxCell>
                <mxCell id="43" value="Vérfication si aucun compte client n'est &lt;br&gt;relié au information de connexion" style="html=1;align=center;verticalAlign=top;rounded=1;absoluteArcSize=1;arcSize=10;dashed=1;whiteSpace=wrap;" parent="1" vertex="1">
                    <mxGeometry x="340" y="510" width="200" height="60" as="geometry"/>
                </mxCell>
                <mxCell id="50" value="" style="edgeStyle=none;html=1;" parent="1" source="46" target="49" edge="1">
                    <mxGeometry relative="1" as="geometry"/>
                </mxCell>
                <mxCell id="54" value="" style="edgeStyle=none;html=1;" parent="1" source="46" target="53" edge="1">
                    <mxGeometry relative="1" as="geometry"/>
                </mxCell>
                <mxCell id="46" value="" style="rhombus;whiteSpace=wrap;html=1;verticalAlign=top;fillColor=rgb(24, 20, 29);rounded=1;arcSize=10;dashed=0;" parent="1" vertex="1">
                    <mxGeometry x="410" y="620" width="60" height="45" as="geometry"/>
                </mxCell>
                <mxCell id="57" style="edgeStyle=orthogonalEdgeStyle;html=1;exitX=0.5;exitY=1;exitDx=0;exitDy=0;entryX=0;entryY=0.5;entryDx=0;entryDy=0;" parent="1" source="49" target="55" edge="1">
                    <mxGeometry relative="1" as="geometry"/>
                </mxCell>
                <mxCell id="49" value="processus de connexion" style="whiteSpace=wrap;html=1;verticalAlign=top;fillColor=rgb(24, 20, 29);rounded=1;arcSize=10;dashed=1;" parent="1" vertex="1">
                    <mxGeometry x="240" y="612.5" width="120" height="60" as="geometry"/>
                </mxCell>
                <mxCell id="56" value="" style="edgeStyle=orthogonalEdgeStyle;html=1;entryX=1;entryY=0.5;entryDx=0;entryDy=0;exitX=0.5;exitY=1;exitDx=0;exitDy=0;" parent="1" source="53" target="55" edge="1">
                    <mxGeometry relative="1" as="geometry"/>
                </mxCell>
                <mxCell id="53" value="Génération et connexion à un compte guest&amp;nbsp;" style="whiteSpace=wrap;html=1;verticalAlign=top;fillColor=rgb(24, 20, 29);rounded=1;arcSize=10;dashed=1;" parent="1" vertex="1">
                    <mxGeometry x="520" y="612.5" width="120" height="60" as="geometry"/>
                </mxCell>
                <mxCell id="59" value="" style="edgeStyle=orthogonalEdgeStyle;html=1;" parent="1" source="55" target="58" edge="1">
                    <mxGeometry relative="1" as="geometry"/>
                </mxCell>
                <mxCell id="55" value="connecté?" style="whiteSpace=wrap;html=1;verticalAlign=top;fillColor=rgb(24, 20, 29);rounded=1;arcSize=10;dashed=1;" parent="1" vertex="1">
                    <mxGeometry x="380" y="740" width="120" height="60" as="geometry"/>
                </mxCell>
                <mxCell id="61" value="" style="edgeStyle=orthogonalEdgeStyle;html=1;" parent="1" source="58" target="60" edge="1">
                    <mxGeometry relative="1" as="geometry"/>
                </mxCell>
                <mxCell id="67" value="" style="edgeStyle=orthogonalEdgeStyle;html=1;" parent="1" source="58" target="66" edge="1">
                    <mxGeometry relative="1" as="geometry"/>
                </mxCell>
                <mxCell id="87" style="edgeStyle=orthogonalEdgeStyle;html=1;exitX=0;exitY=0.5;exitDx=0;exitDy=0;entryX=0;entryY=0.5;entryDx=0;entryDy=0;" edge="1" parent="1" source="58" target="49">
                    <mxGeometry relative="1" as="geometry">
                        <Array as="points">
                            <mxPoint x="180" y="895"/>
                            <mxPoint x="180" y="642"/>
                        </Array>
                    </mxGeometry>
                </mxCell>
                <mxCell id="58" value="" style="rhombus;whiteSpace=wrap;html=1;verticalAlign=top;fillColor=rgb(24, 20, 29);rounded=1;arcSize=10;dashed=0;" parent="1" vertex="1">
                    <mxGeometry x="412.5" y="870" width="55" height="50" as="geometry"/>
                </mxCell>
                <mxCell id="63" value="" style="edgeStyle=orthogonalEdgeStyle;html=1;entryX=0;entryY=0.5;entryDx=0;entryDy=0;" parent="1" source="60" target="64" edge="1">
                    <mxGeometry relative="1" as="geometry">
                        <mxPoint x="25" y="895" as="targetPoint"/>
                    </mxGeometry>
                </mxCell>
                <mxCell id="60" value="Redirection vers le site vitrine" style="whiteSpace=wrap;html=1;verticalAlign=top;fillColor=rgb(24, 20, 29);rounded=1;arcSize=10;dashed=0;" parent="1" vertex="1">
                    <mxGeometry x="520" y="865" width="170" height="60" as="geometry"/>
                </mxCell>
                <mxCell id="64" value="" style="ellipse;html=1;shape=endState;fillColor=strokeColor;" parent="1" vertex="1">
                    <mxGeometry x="790" y="880" width="30" height="30" as="geometry"/>
                </mxCell>
                <mxCell id="71" value="" style="edgeStyle=orthogonalEdgeStyle;html=1;" parent="1" source="66" target="70" edge="1">
                    <mxGeometry relative="1" as="geometry"/>
                </mxCell>
                <mxCell id="66" value="Géolocalisation?" style="whiteSpace=wrap;html=1;verticalAlign=top;fillColor=rgb(24, 20, 29);rounded=1;arcSize=10;dashed=1;" parent="1" vertex="1">
                    <mxGeometry x="380" y="980" width="120" height="60" as="geometry"/>
                </mxCell>
                <mxCell id="73" value="" style="edgeStyle=orthogonalEdgeStyle;html=1;" parent="1" source="70" target="72" edge="1">
                    <mxGeometry relative="1" as="geometry"/>
                </mxCell>
                <mxCell id="89" value="Active et acceptée" style="edgeLabel;html=1;align=center;verticalAlign=middle;resizable=0;points=[];" vertex="1" connectable="0" parent="73">
                    <mxGeometry x="-0.062" y="1" relative="1" as="geometry">
                        <mxPoint x="28" y="-1" as="offset"/>
                    </mxGeometry>
                </mxCell>
                <mxCell id="75" value="" style="edgeStyle=orthogonalEdgeStyle;html=1;" parent="1" source="70" target="74" edge="1">
                    <mxGeometry relative="1" as="geometry"/>
                </mxCell>
                <mxCell id="76" value="Si non accepté" style="edgeLabel;html=1;align=center;verticalAlign=middle;resizable=0;points=[];" parent="75" vertex="1" connectable="0">
                    <mxGeometry x="-0.348" y="-1" relative="1" as="geometry">
                        <mxPoint as="offset"/>
                    </mxGeometry>
                </mxCell>
                <mxCell id="77" style="edgeStyle=orthogonalEdgeStyle;html=1;exitX=0.5;exitY=1;exitDx=0;exitDy=0;entryX=0;entryY=0.5;entryDx=0;entryDy=0;" parent="1" source="70" target="74" edge="1">
                    <mxGeometry relative="1" as="geometry"/>
                </mxCell>
                <mxCell id="78" value="si erreur ou impossibilité" style="edgeLabel;html=1;align=center;verticalAlign=middle;resizable=0;points=[];" parent="77" vertex="1" connectable="0">
                    <mxGeometry x="-0.1729" relative="1" as="geometry">
                        <mxPoint as="offset"/>
                    </mxGeometry>
                </mxCell>
                <mxCell id="70" value="" style="rhombus;whiteSpace=wrap;html=1;verticalAlign=top;fillColor=rgb(24, 20, 29);rounded=1;arcSize=10;dashed=0;" parent="1" vertex="1">
                    <mxGeometry x="412.5" y="1140" width="55" height="45" as="geometry"/>
                </mxCell>
                <mxCell id="80" style="edgeStyle=orthogonalEdgeStyle;html=1;exitX=0.5;exitY=1;exitDx=0;exitDy=0;entryX=0;entryY=0.5;entryDx=0;entryDy=0;" parent="1" source="72" target="79" edge="1">
                    <mxGeometry relative="1" as="geometry"/>
                </mxCell>
                <mxCell id="72" value="Affectation au magasin le plus proche" style="whiteSpace=wrap;html=1;verticalAlign=top;fillColor=rgb(24, 20, 29);rounded=1;arcSize=10;dashed=1;" parent="1" vertex="1">
                    <mxGeometry x="225" y="1238.13" width="120" height="73.75" as="geometry"/>
                </mxCell>
                <mxCell id="81" style="edgeStyle=orthogonalEdgeStyle;html=1;exitX=0.5;exitY=1;exitDx=0;exitDy=0;entryX=1;entryY=0.5;entryDx=0;entryDy=0;" parent="1" source="74" target="79" edge="1">
                    <mxGeometry relative="1" as="geometry"/>
                </mxCell>
                <mxCell id="74" value="Demande de choix d'un magasin" style="whiteSpace=wrap;html=1;verticalAlign=top;fillColor=rgb(24, 20, 29);rounded=1;arcSize=10;dashed=0;" parent="1" vertex="1">
                    <mxGeometry x="535" y="1245" width="120" height="60" as="geometry"/>
                </mxCell>
                <mxCell id="82" style="edgeStyle=orthogonalEdgeStyle;html=1;exitX=0.5;exitY=1;exitDx=0;exitDy=0;entryX=0.5;entryY=0;entryDx=0;entryDy=0;" parent="1" source="79" target="83" edge="1">
                    <mxGeometry relative="1" as="geometry">
                        <mxPoint x="455" y="1545" as="targetPoint"/>
                    </mxGeometry>
                </mxCell>
                <mxCell id="79" value="Redirection vers la boutique" style="whiteSpace=wrap;html=1;verticalAlign=top;fillColor=rgb(24, 20, 29);rounded=1;arcSize=10;dashed=0;" parent="1" vertex="1">
                    <mxGeometry x="380" y="1365" width="120" height="73.75" as="geometry"/>
                </mxCell>
                <mxCell id="83" value="" style="ellipse;html=1;shape=endState;fillColor=strokeColor;" parent="1" vertex="1">
                    <mxGeometry x="425" y="1480" width="30" height="30" as="geometry"/>
                </mxCell>
                <mxCell id="84" value="Diagramme d'activité - Connexion d'un internaute à la magasin en ligne" style="text;align=center;fontStyle=1;verticalAlign=middle;spacingLeft=3;spacingRight=3;rotatable=0;points=[[0,0.5],[1,0.5]];portConstraint=eastwest;fillColor=#4D4D4D;" vertex="1" parent="1">
                    <mxGeometry x="10" y="10" width="830" height="26" as="geometry"/>
                </mxCell>
            </root>
        </mxGraphModel>
    </diagram>
</mxfile>